<?xml version="1.0" standalone="no"?>
<!DOCTYPE svg PUBLIC "-//W3C//DTD SVG 20010904//EN"
 "http://www.w3.org/TR/2001/REC-SVG-20010904/DTD/svg10.dtd">
<svg version="1.0" xmlns="http://www.w3.org/2000/svg"
 width="366.000000pt" height="68.000000pt" viewBox="0 0 366.000000 68.000000"
 preserveAspectRatio="xMidYMid meet">

<g transform="translate(0.000000,68.000000) scale(0.100000,-0.100000)"
fill="#000000" stroke="none">
<path d="M290 511 l-75 -6 3 -38 c4 -54 -44 -193 -80 -230 -38 -40 -25 -52 57
-52 47 0 69 5 81 17 13 13 15 20 6 31 -18 21 4 87 28 87 18 0 20 -7 20 -59 0
-70 14 -86 73 -84 48 2 89 35 69 55 -7 7 -12 31 -12 55 0 29 -5 45 -17 51 -14
8 -11 14 20 46 41 40 50 93 21 117 -18 15 -90 19 -194 10z m88 -68 c4 -26 -29
-66 -51 -62 -15 4 -15 8 3 47 20 45 43 52 48 15z"/>
<path d="M2095 506 c-15 -10 -17 -17 -8 -27 6 -8 13 -74 16 -147 2 -74 9 -138
15 -144 19 -19 52 4 102 73 27 38 55 69 60 69 6 0 10 -21 11 -47 3 -152 38
-136 190 84 40 57 79 107 87 112 28 16 6 41 -37 41 -49 0 -76 -22 -59 -49 9
-15 6 -25 -17 -55 -15 -20 -31 -36 -36 -36 -16 0 -10 87 6 100 12 10 13 16 3
27 -9 11 -29 14 -80 11 -72 -4 -101 -19 -80 -40 7 -7 12 -21 12 -32 -1 -28
-34 -71 -49 -62 -14 9 -14 79 0 93 7 7 9 19 6 27 -8 21 -115 22 -142 2z"/>
<path d="M1287 495 c-50 -17 -54 -22 -38 -46 17 -28 10 -32 -52 -33 -91 -2
-161 -73 -155 -158 2 -31 10 -46 30 -61 25 -18 31 -19 69 -8 32 10 44 10 49 1
9 -15 95 -3 111 16 6 8 9 20 6 28 -3 8 12 68 34 133 21 64 39 123 39 130 0 17
-44 16 -93 -2z m-64 -158 c-3 -44 -33 -97 -55 -97 -18 0 -20 5 -15 41 9 67 75
119 70 56z"/>
<path d="M1448 499 c-28 -11 -42 -34 -32 -51 4 -6 26 -8 51 -5 47 5 91 36 79
56 -9 13 -61 13 -98 0z"/>
<path d="M1634 500 c-32 -13 -64 -59 -64 -91 0 -16 -5 -29 -10 -29 -6 0 -15
-10 -19 -22 -7 -17 -5 -26 6 -35 13 -10 14 -17 3 -43 -12 -28 -44 -60 -61 -60
-18 0 -16 38 6 107 14 41 25 79 25 84 0 14 -42 11 -94 -7 -47 -16 -48 -17 -42
-50 8 -38 -14 -98 -46 -128 -20 -19 -20 -20 -2 -33 23 -17 91 -17 124 0 21 11
29 11 48 -1 30 -19 138 -11 161 13 15 15 15 17 -3 30 -27 20 -11 78 22 83 14
2 27 14 33 28 12 34 12 34 -13 34 -27 1 -62 44 -54 66 8 20 23 18 36 -6 20
-38 80 -19 80 25 0 12 -5 26 -12 33 -14 14 -92 15 -124 2z"/>
<path d="M620 409 c-14 -6 -38 -22 -53 -37 -106 -100 -54 -219 78 -182 43 12
95 54 82 67 -4 3 -23 1 -44 -5 -40 -12 -73 -2 -73 23 0 12 14 15 60 15 47 0
64 4 80 20 45 45 6 111 -66 109 -21 0 -50 -5 -64 -10z m65 -39 c9 -15 -14 -40
-36 -40 -21 0 -25 20 -7 38 15 15 35 15 43 2z"/>
<path d="M853 399 c-43 -21 -60 -46 -44 -62 8 -8 41 5 83 35 22 16 32 5 24
-27 -5 -19 -13 -25 -34 -25 -38 -1 -108 -34 -121 -58 -31 -58 8 -94 79 -73 29
8 45 9 60 1 26 -14 63 -4 91 26 17 18 20 27 12 35 -8 8 -8 24 3 58 19 63 18
88 -5 101 -32 16 -103 12 -148 -11z m33 -144 c-7 -19 -36 -19 -36 0 0 17 33
38 38 24 2 -5 1 -16 -2 -24z"/>
<path d="M1773 410 c-25 -10 -30 -29 -11 -48 17 -17 38 -163 27 -184 -13 -24
-29 -23 -29 1 0 40 -66 26 -76 -16 -9 -32 12 -53 53 -53 66 0 100 29 201 171
33 47 72 90 86 97 43 19 33 42 -18 42 -46 0 -73 -19 -63 -44 6 -14 -18 -56
-32 -56 -17 0 -20 32 -6 59 8 16 11 31 8 35 -9 9 -115 6 -140 -4z"/>
<path d="M2630 404 c-94 -41 -143 -151 -89 -200 45 -41 168 -14 227 48 45 49
47 122 4 154 -23 18 -99 17 -142 -2z m60 -73 c0 -56 -16 -93 -38 -89 -33 7
-12 128 23 128 11 0 15 -11 15 -39z"/>
<path d="M2894 409 c-40 -11 -62 -35 -46 -51 15 -15 -19 -102 -50 -128 -23
-20 -23 -20 -3 -36 27 -21 129 -15 153 10 16 16 16 18 -1 31 -17 12 -18 18 -7
52 16 50 24 57 47 42 43 -26 113 24 98 71 -8 25 -45 27 -80 4 -23 -15 -25 -15
-25 0 0 18 -34 20 -86 5z"/>
<path d="M3142 403 c-39 -14 -43 -18 -39 -41 6 -32 -29 -131 -49 -139 -23 -9
-16 -32 12 -39 14 -4 44 -3 67 2 39 8 42 12 48 50 11 60 36 114 53 114 9 0 16
-9 16 -20 0 -27 -26 -89 -47 -112 -21 -23 -14 -29 41 -35 58 -7 95 14 94 54 0
49 27 108 50 111 12 2 22 -1 22 -6 0 -21 -32 -97 -48 -115 -16 -18 -16 -20 3
-33 22 -16 63 -18 99 -4 19 7 26 17 26 37 0 14 10 57 22 94 18 56 19 70 9 83
-17 20 -64 20 -102 0 -28 -14 -32 -14 -48 0 -24 22 -69 20 -109 -4 l-34 -21 7
21 c5 17 2 20 -22 19 -15 0 -48 -7 -71 -16z"/>
</g>
</svg>
